<svg id="Dark" xmlns="http://www.w3.org/2000/svg" viewBox="0 0 23 54"><defs><style>.cls-1{fill:#f0f0f0;}</style></defs><title>family-chapternav-iPhone-6-lf-lily</title><g id="Airpods"><path class="cls-1" d="M12.92,31.54V50.08a.93.93,0,0,0,.92.92H15.7c.48,0,1.22-.4,1.22-.92V34.24a13.82,13.82,0,0,0,2,.18,5.14,5.14,0,0,0,3.8-1.81.82.82,0,0,0,.22-.62V28a1.05,1.05,0,0,0-.22-.62,5.77,5.77,0,0,0-4.1-1.85C15.66,25.51,12.92,29.51,12.92,31.54Z"/><path class="cls-1" d="M9.92,31.54V50.08A.93.93,0,0,1,9,51H7.22C6.74,51,6,50.6,6,50.08V34.24a13.82,13.82,0,0,1-2,.18,5.14,5.14,0,0,1-3.8-1.81A.82.82,0,0,1,0,32V28a1.05,1.05,0,0,1,.22-.62,5.77,5.77,0,0,1,4.1-1.85C7.27,25.51,9.92,29.51,9.92,31.54Z"/></g></svg>